<svg width="160" height="160" viewBox="0 0 160 160" fill="none" xmlns="http://www.w3.org/2000/svg">
<g transform="scale(2) translate(-40, -40)">
<rect width="160" height="160" fill="none"/>
<path d="M72.4703 68.3157C76.817 64.0899 76.5542 59.0188 75.8794 57.0115H75.9857C76.3267 56.927 77.2642 57.3285 77.6903 57.5397C80.4177 58.892 82.2359 62.3291 82.8041 63.8786C83.9121 65.907 83.6209 69.2314 83.3368 70.64C82.3992 72.5839 81.9518 74.8306 81.8452 75.711C81.9305 81.2047 85.0058 80.0426 86.5329 78.7748C88.834 76.5773 89.4093 73.3516 89.4093 72.0134C91.881 73.9573 93.9194 79.1622 94.6296 81.5216C95.8228 85.2404 94.4165 90.889 93.5643 93.2484C91.1778 98.6576 86.0357 101.207 83.7629 101.806C84.0186 101.299 84.7217 99.6929 85.0413 98.9534C86.1067 95.2557 84.0825 93.3541 83.4433 92.9315C82.9319 92.5934 80.7444 90.7481 79.7145 89.8677C78.9475 89.2761 77.5483 87.79 76.9446 87.1209C74.8138 84.5009 75.3465 82.5077 75.8792 81.8386C72.2996 83.867 71.1206 89.0226 70.9785 91.3468C71.2342 97.8546 73.9971 100.749 75.3465 101.383C79.4375 99.7774 79.4659 97.4743 78.9688 96.5235C81.1847 97.6222 81.3836 99.6577 81.206 100.538C80.5242 103.75 76.8025 103.144 75.0269 102.44C74.1746 102.186 71.1866 101.16 69.8066 100.01C65.9713 97.2208 64.0183 92.6498 63.5212 90.7129C62.4132 86.9941 63.6988 81.7681 64.48 79.62C65.6733 76.1548 70.304 70.64 72.4703 68.3157Z" fill="url(#paint0_linear_1437_98720)"/>
<path d="M78.9845 96C79.1365 99.4568 76.4329 100.901 75.293 101.355L75 102L75.5 102.5C77.0199 103.296 78.5096 103.012 79.0795 102.936C79.9154 102.663 80.8417 101.841 81 101.5C82.2349 98.3161 79.9661 96.5686 78.9845 96Z" fill="url(#paint1_linear_1437_98720)"/>
<defs>
<linearGradient id="paint0_linear_1437_98720" x1="79.0898" y1="57" x2="79.0898" y2="103" gradientUnits="userSpaceOnUse">
<stop stop-color="#56D1CC"/>
<stop offset="1" stop-color="#3F918B"/>
</linearGradient>
<linearGradient id="paint1_linear_1437_98720" x1="79.3645" y1="96.796" x2="74.5693" y2="101.279" gradientUnits="userSpaceOnUse">
<stop stop-color="#E8736A"/>
<stop offset="1" stop-color="#A97871"/>
</linearGradient>
</defs>
</g>
</svg>
